# xmcd
#
# Track frame offsets:
#	150
#	5555
#	29610
#	39768
#	47760
#	62112
#	71657
#	89978
#	110281
#	131786
#
# Disc length: 2124 seconds
#
# Revision: 0
# Processed by: cddbd v1.5.2PL0 Copyright (c) Steve Scherf et al.
# Submitted via: EZCDAudioConverter 2.2.0.1
#
DISCID=8d084a0a
DTITLE=Workers in Songs - That Glorious Masterpiece
DYEAR=2014
DGENRE=Americana
TTITLE0=Country Rag Dream #116
TTITLE1=Sorry Marie
TTITLE2=Crazy Just for You
TTITLE3=Hey Hey Pretty Baby
TTITLE4=Faithful to You
TTITLE5=Appalachia Longin’
TTITLE6=Billie Said It First
TTITLE7=Next to You
TTITLE8=That Glorious Masterpiece
TTITLE9=Livin’ in a Cheap Motel
EXTD=
EXTT0=
EXTT1=
EXTT2=
EXTT3=
EXTT4=
EXTT5=
EXTT6=
EXTT7=
EXTT8=
EXTT9=
PLAYORDER=
